<?xml version="1.0" standalone="no"?>
<!DOCTYPE svg PUBLIC "-//W3C//DTD SVG 20010904//EN"
 "http://www.w3.org/TR/2001/REC-SVG-20010904/DTD/svg10.dtd">
<svg version="1.0" xmlns="http://www.w3.org/2000/svg"
 width="1024.000000pt" height="1024.000000pt" viewBox="0 0 1024.000000 1024.000000"
 preserveAspectRatio="xMidYMid meet">

<g transform="translate(0.000000,1024.000000) scale(0.100000,-0.100000)"
fill="#000000" stroke="none">
<path d="M2799 8186 c-129 -36 -260 -147 -318 -271 -42 -88 -46 -116 -21 -148
41 -52 107 -29 133 48 70 205 306 301 500 203 98 -49 183 -171 194 -280 l6
-56 -42 -21 c-28 -15 -47 -34 -62 -64 -48 -96 -134 -156 -234 -164 -119 -10
-210 37 -279 145 -32 51 -53 72 -77 81 -19 7 -108 11 -226 11 -193 0 -194 0
-218 -25 -32 -31 -32 -59 0 -90 24 -25 27 -25 199 -25 l175 0 29 -43 c46 -66
117 -126 190 -160 54 -25 83 -32 153 -35 169 -8 305 57 389 189 l32 49 278 0
c265 0 278 1 304 21 35 28 35 70 0 98 -25 20 -39 21 -245 21 l-219 0 0 38 c0
20 -7 66 -15 101 -41 171 -170 312 -340 371 -68 23 -211 26 -286 6z"/>
<path d="M4210 8150 c-43 -43 -13 -130 45 -130 35 0 75 42 75 78 0 62 -77 95
-120 52z"/>
<path d="M6720 8162 c-51 -16 -68 -84 -30 -122 53 -53 139 10 110 81 -12 28
-53 50 -80 41z"/>
<path d="M6020 8153 c-53 -19 -68 -86 -28 -123 63 -59 157 32 101 98 -20 23
-50 33 -73 25z"/>
<path d="M5141 8086 c-12 -31 -31 -82 -42 -113 -12 -32 -28 -65 -36 -74 -8 -9
-59 -31 -113 -48 -55 -17 -101 -35 -104 -40 -9 -14 13 -26 111 -60 50 -18 99
-41 107 -50 8 -9 33 -61 55 -116 21 -55 45 -100 52 -100 6 0 30 47 51 105 22
58 44 110 50 117 5 7 39 22 76 34 97 32 155 60 146 69 -5 4 -55 24 -112 45
-56 21 -105 42 -109 49 -4 6 -26 60 -48 120 -22 60 -45 111 -52 113 -6 2 -21
-21 -32 -51z"/>
<path d="M7376 7994 c-19 -19 -21 -74 -3 -97 6 -9 26 -20 43 -23 60 -12 96 60
58 114 -18 26 -74 30 -98 6z"/>
<path d="M7770 7739 c-148 -29 -295 -173 -335 -328 l-11 -46 -65 -7 c-35 -4
-238 -7 -450 -5 -368 2 -388 1 -408 -17 -25 -23 -27 -63 -5 -94 l15 -22 788 0
c751 0 789 1 804 18 24 26 21 75 -4 98 -19 17 -42 19 -270 22 -212 3 -249 5
-249 18 0 31 31 86 75 133 57 61 128 91 214 91 70 0 110 -13 176 -57 55 -36
89 -41 123 -17 72 50 -33 169 -183 209 -64 16 -144 18 -215 4z"/>
<path d="M6322 7634 c-46 -32 -18 -114 39 -114 29 0 62 34 62 65 0 31 -33 65
-62 65 -9 0 -27 -7 -39 -16z"/>
<path d="M4615 7555 c-47 -46 -60 -23 308 -527 75 -103 137 -192 137 -198 0
-6 -100 -150 -223 -318 -123 -169 -243 -336 -268 -372 -24 -35 -47 -69 -51
-74 -4 -6 -199 -9 -525 -7 -552 3 -639 -1 -647 -28 -6 -19 -108 -625 -160
-951 -60 -373 -44 -526 75 -727 44 -73 185 -222 255 -268 113 -75 253 -132
379 -152 l50 -8 3 -791 2 -790 -147 -51 c-533 -184 -543 -188 -543 -222 0 -12
-10 -20 -29 -24 -16 -4 -307 -6 -647 -7 -462 0 -621 -3 -632 -12 -37 -31 -32
-107 8 -128 12 -7 1127 -10 3150 -10 l3131 0 24 25 c15 14 25 36 25 53 0 32
-32 72 -58 72 -9 0 -268 1 -575 2 l-558 2 -5 22 c-3 12 -13 29 -22 37 -15 13
-303 115 -574 204 -103 33 -108 36 -113 66 -3 18 -4 374 -3 792 l3 760 46 6
c132 19 294 82 395 154 221 158 362 423 364 686 0 58 -38 298 -172 1086 -30
174 -35 192 -55 197 -11 3 -274 6 -583 5 -534 -1 -562 0 -575 18 -15 19 -24
31 -323 443 -98 135 -279 382 -402 550 -123 168 -251 342 -283 388 -91 126
-132 148 -182 97z m608 -937 c68 -89 397 -545 397 -552 0 -2 -17 -7 -38 -11
l-38 -6 -37 -232 c-20 -128 -62 -392 -93 -587 -63 -389 -68 -482 -39 -625 30
-142 113 -291 228 -408 142 -145 327 -236 546 -267 l77 -12 -1 -790 0 -791
-85 -30 c-313 -109 -538 -191 -557 -203 -13 -8 -23 -23 -23 -33 0 -12 -9 -20
-22 -22 -13 -2 -187 -4 -387 -4 l-365 0 -8 31 c-10 39 -10 39 -384 169 -277
96 -282 98 -288 127 -8 40 -8 1428 0 1494 l6 51 96 17 c119 21 226 57 317 107
210 115 372 325 426 554 39 165 33 230 -69 860 -51 308 -96 570 -102 583 -7
17 -18 22 -45 22 -45 0 -53 -14 124 230 78 107 176 243 219 302 42 59 78 107
79 108 1 0 31 -37 66 -82z m-569 -740 c8 -38 36 -215 36 -227 0 -8 -169 -11
-626 -11 l-627 0 6 36 c3 20 12 78 19 130 l12 94 588 0 588 0 4 -22z m2196 20
c0 -2 9 -55 20 -118 11 -63 20 -121 20 -127 0 -10 -132 -13 -625 -13 -589 0
-625 1 -625 18 0 9 7 68 17 130 l16 112 589 0 c323 0 588 -1 588 -2z m-2126
-445 c3 -21 15 -99 26 -173 11 -74 32 -201 45 -281 40 -238 30 -356 -45 -505
-118 -234 -331 -381 -602 -415 -214 -27 -460 52 -618 198 -128 118 -200 255
-221 420 -10 76 -8 106 9 218 11 72 35 230 53 352 l34 223 656 0 656 0 7 -37z
m2208 -13 c92 -550 100 -606 96 -705 -6 -113 -34 -208 -90 -303 -43 -73 -177
-208 -251 -251 -80 -47 -206 -88 -313 -102 -244 -31 -508 66 -674 248 -100
109 -148 204 -176 347 -15 75 -16 101 -6 179 11 89 76 538 87 605 l6 32 657
-2 657 -3 7 -45z m-2678 -3312 c121 -39 225 -74 229 -78 4 -4 -199 -7 -453 -6
-253 1 -460 3 -460 6 0 8 419 148 444 149 10 1 118 -31 240 -71z m2286 2 c117
-38 221 -70 231 -70 10 0 20 -3 22 -7 3 -5 -204 -9 -459 -10 -255 -1 -464 1
-464 5 0 9 408 151 436 151 12 1 117 -30 234 -69z"/>
<path d="M4941 3874 c-24 -31 -25 -35 -10 -67 35 -76 142 -38 124 44 -12 54
-79 67 -114 23z"/>
<path d="M5536 3731 c-25 -27 -17 -70 17 -95 26 -19 30 -19 55 -5 33 18 43 77
17 103 -22 22 -68 20 -89 -3z"/>
<path d="M5727 3332 c-34 -38 -8 -102 42 -102 52 0 82 68 45 104 -21 22 -67
20 -87 -2z"/>
<path d="M5105 2928 c-28 -16 -35 -28 -35 -64 0 -39 27 -64 68 -64 66 0 94 69
47 115 -26 27 -49 31 -80 13z"/>
<path d="M5613 7561 c-11 -11 -49 -59 -83 -108 -35 -48 -100 -138 -146 -198
-93 -124 -108 -154 -95 -189 10 -26 30 -36 67 -36 42 0 59 15 135 122 40 57
111 153 156 213 63 84 83 118 83 143 0 63 -71 95 -117 53z"/>
<path d="M4044 7305 c-19 -19 -23 -31 -18 -48 17 -56 67 -74 104 -37 28 28 25
64 -6 89 -35 27 -49 26 -80 -4z"/>
<path d="M2846 6994 c-22 -21 -20 -67 2 -87 40 -37 102 -9 102 46 0 34 -24 57
-60 57 -16 0 -36 -7 -44 -16z"/>
<path d="M8283 6976 c-65 -29 -261 -141 -353 -202 -203 -135 -460 -366 -460
-414 0 -39 27 -70 61 -70 23 0 47 16 108 74 213 199 374 315 652 470 101 56
122 84 91 125 -22 31 -55 36 -99 17z"/>
<path d="M2021 6961 c-26 -26 -27 -65 -2 -90 10 -10 68 -44 128 -74 241 -122
441 -258 633 -431 79 -71 106 -80 140 -46 34 34 25 66 -37 131 -141 149 -387
320 -628 440 -190 93 -206 98 -234 70z"/>
<path d="M3415 6868 c-61 -33 -87 -76 -87 -145 0 -83 63 -143 148 -143 84 0
145 57 152 144 5 61 -23 111 -78 138 -39 20 -105 23 -135 6z m105 -98 c11 -11
20 -31 20 -44 0 -26 -41 -66 -68 -66 -26 0 -52 32 -52 63 0 60 59 88 100 47z"/>
<path d="M5777 6862 c-22 -25 -21 -75 1 -95 10 -10 32 -17 49 -17 55 0 81 59
47 108 -19 28 -74 30 -97 4z"/>
<path d="M6997 6865 c-75 -26 -117 -96 -102 -171 12 -64 84 -124 150 -124 14
0 44 9 66 20 122 63 110 235 -20 279 -42 14 -47 13 -94 -4z m88 -100 c31 -30
31 -52 3 -82 -21 -23 -53 -29 -74 -15 -13 9 -34 46 -34 62 0 17 47 60 65 60 9
0 27 -11 40 -25z"/>
<path d="M4447 6852 c-24 -26 -21 -67 5 -92 29 -27 54 -25 83 5 29 28 31 51 9
83 -19 28 -74 30 -97 4z"/>
<path d="M4152 6608 c-17 -17 -15 -74 4 -92 21 -22 60 -20 84 4 41 41 13 100
-46 100 -17 0 -35 -5 -42 -12z"/>
<path d="M6034 6544 c-22 -32 -10 -72 27 -93 59 -33 119 49 73 100 -26 29 -79
25 -100 -7z"/>
<path d="M7976 6354 c-17 -17 -21 -51 -7 -72 4 -8 27 -18 50 -23 96 -21 166
36 111 91 -26 26 -130 29 -154 4z"/>
<path d="M1928 6349 c-32 -18 -40 -46 -24 -78 9 -16 23 -31 31 -35 9 -3 109
-6 221 -6 204 0 205 0 229 25 14 13 25 31 25 40 0 9 -11 27 -25 40 -24 25 -24
25 -232 25 -122 0 -215 -5 -225 -11z"/>
<path d="M2773 5970 c-64 -26 -42 -130 28 -130 30 0 69 40 69 70 0 42 -56 76
-97 60z"/>
<path d="M7486 5964 c-24 -24 -20 -80 6 -98 33 -23 64 -19 88 11 36 46 8 103
-51 103 -15 0 -35 -7 -43 -16z"/>
<path d="M1940 5903 c-40 -14 -54 -77 -22 -106 9 -9 58 -30 107 -48 183 -64
410 -187 570 -307 123 -94 137 -102 166 -102 48 0 74 54 49 100 -13 23 -174
147 -291 223 -181 118 -522 259 -579 240z"/>
<path d="M8104 5821 c-54 -14 -135 -64 -175 -109 -168 -192 -106 -477 128
-585 39 -18 65 -22 143 -22 83 1 103 4 157 29 73 33 154 113 184 180 61 139
31 301 -78 409 -72 72 -138 100 -242 104 -47 1 -100 -1 -117 -6z"/>
<path d="M2197 5304 c-7 -16 -28 -69 -46 -119 -17 -49 -35 -96 -39 -102 -4 -7
-59 -30 -122 -51 -62 -21 -115 -43 -117 -49 -2 -6 29 -23 69 -38 173 -65 178
-69 223 -206 14 -42 32 -85 40 -95 16 -22 14 -25 67 126 16 47 33 92 38 100 5
8 61 35 125 60 65 25 118 49 119 55 0 5 -50 25 -112 45 -64 20 -118 42 -123
51 -4 9 -26 65 -48 124 -22 59 -44 112 -49 117 -7 7 -15 0 -25 -18z"/>
<path d="M7617 4932 c-35 -38 -6 -112 43 -112 29 0 60 35 60 68 0 55 -68 83
-103 44z"/>
<path d="M7604 4592 c-39 -25 -36 -90 5 -111 13 -7 169 -11 460 -11 l440 0 15
22 c9 12 16 32 16 43 0 11 -7 31 -16 43 l-15 22 -447 0 c-246 0 -452 -4 -458
-8z"/>
<path d="M2650 4494 c-34 -40 -5 -104 45 -104 47 0 73 70 39 104 -20 20 -68
21 -84 0z"/>
<path d="M8270 4240 c-24 -24 -25 -49 -6 -76 12 -16 29 -20 105 -22 85 -4 91
-3 115 22 31 30 32 36 5 70 -19 25 -25 26 -110 26 -76 0 -92 -3 -109 -20z"/>
<path d="M2130 4223 c-68 -25 -145 -106 -166 -178 -44 -153 28 -306 169 -360
68 -26 179 -17 240 18 134 79 184 235 118 373 -64 136 -216 198 -361 147z"/>
<path d="M7720 4200 c-23 -23 -25 -42 -9 -73 16 -29 28 -37 61 -37 27 0 68 39
68 65 0 7 -9 24 -21 39 -25 32 -70 35 -99 6z"/>
<path d="M7845 3844 c-57 -152 -44 -136 -131 -166 -42 -15 -82 -32 -86 -36 -6
-6 26 -21 74 -38 90 -32 90 -31 139 -151 12 -29 25 -53 29 -53 5 0 21 36 37
81 31 89 40 97 151 133 28 10 52 21 52 26 0 8 -46 27 -121 50 -38 11 -47 23
-79 111 -11 30 -26 64 -34 74 -12 17 -15 14 -31 -31z"/>
<path d="M2879 3838 c-35 -12 -53 -55 -40 -91 28 -72 131 -51 131 27 0 50 -43
80 -91 64z"/>
<path d="M7222 3508 c-28 -14 -38 -51 -24 -83 20 -44 94 -45 108 -2 11 33 5
60 -18 80 -23 19 -34 20 -66 5z"/>
<path d="M3024 3284 c-30 -71 -26 -68 -137 -109 -27 -9 -45 -21 -40 -25 4 -4
38 -17 74 -30 l67 -23 36 -80 c20 -45 40 -77 44 -71 7 8 25 49 52 120 6 14 33
32 80 51 39 17 71 34 71 39 0 5 -26 18 -59 29 -77 26 -85 34 -112 105 -12 33
-28 60 -35 60 -7 0 -25 -30 -41 -66z"/>
<path d="M2186 3198 c-9 -12 -16 -30 -16 -39 0 -25 33 -49 67 -49 36 0 56 20
56 55 0 36 -21 55 -59 55 -23 0 -38 -7 -48 -22z"/>
<path d="M1845 3186 c-17 -25 -11 -53 14 -73 10 -8 50 -12 104 -13 74 0 90 3
107 20 22 22 26 60 8 78 -8 8 -48 12 -115 12 -97 0 -103 -1 -118 -24z"/>
<path d="M7320 3190 c-26 -26 -25 -50 0 -78 25 -27 61 -28 83 -4 53 58 -28
137 -83 82z"/>
<path d="M8160 3002 c-30 -24 -30 -70 0 -94 29 -23 55 -23 80 2 25 25 25 51 3
78 -27 30 -57 35 -83 14z"/>
<path d="M2094 2632 c-19 -13 -34 -50 -27 -69 18 -52 21 -53 244 -53 l208 0
20 26 c26 33 27 58 1 84 -19 19 -33 20 -227 20 -115 0 -213 -4 -219 -8z"/>
<path d="M7377 2622 c-23 -25 -21 -68 3 -92 19 -19 33 -20 269 -20 l250 0 21
27 c15 19 19 35 15 53 -12 48 -21 50 -290 50 -231 0 -253 -1 -268 -18z"/>
<path d="M1656 2027 c-44 -44 -33 -114 22 -136 52 -22 112 17 112 72 -1 44
-28 76 -72 83 -30 5 -41 2 -62 -19z"/>
<path d="M8473 2040 c-44 -18 -58 -90 -24 -131 42 -52 141 -13 141 55 -1 60
-61 100 -117 76z"/>
</g>
</svg>
